<svg xmlns="http://www.w3.org/2000/svg" id="icon-copy_link" width="24" height="24" viewBox="0 0 24 24">
    <defs>
        <style>
            .cls-2{fill:#525252}
        </style>
    </defs>
    <circle id="Ellipse_28" cx="12" cy="12" r="12" fill="#e0e0e0"/>
    <g id="link" transform="translate(5.998 6.001)">
        <path id="Path_9654" d="M5.176 160.775l-1.1 1.1a1.417 1.417 0 1 1-2-2l2.215-2.215a1.416 1.416 0 0 1 2 0 .608.608 0 0 0 .868.009l.694-.694a3.074 3.074 0 0 0-4.743-.483L.9 158.7a3.075 3.075 0 1 0 4.348 4.348l1.985-1.985a3.892 3.892 0 0 1-2.057-.288zm0 0" class="cls-2" transform="translate(0 -151.946)"/>
        <path id="Path_9655" d="M184.082.9a3.078 3.078 0 0 0-4.348 0l-1.985 1.985a3.89 3.89 0 0 1 2.058.286l1.1-1.1a1.417 1.417 0 0 1 2 2L180.7 6.285a1.41 1.41 0 0 1-1.864.106 1.39 1.39 0 0 1-.13-.115.621.621 0 0 0-.877 0l-.694.694a3.074 3.074 0 0 0 4.743.483l2.207-2.207A3.078 3.078 0 0 0 184.082.9zm0 0" class="cls-2" transform="translate(-172.979)"/>
    </g>
</svg>
